<svg height="456pt" viewBox="-4 0 456 456" width="456pt" xmlns="http://www.w3.org/2000/svg"><path d="m264 256c0 22.089844-17.910156 40-40 40s-40-17.910156-40-40 17.910156-40 40-40 40 17.910156 40 40zm0 0"/><path d="m376 152c0-83.949219-68.050781-152-152-152s-152 68.050781-152 152h-72v304h448v-304zm-144 159.359375v88.640625c0 4.417969-3.582031 8-8 8s-8-3.582031-8-8v-88.640625c-29.070312-4.195313-49.960938-30.140625-47.855469-59.433594 2.101563-29.296875 26.484375-51.992187 55.855469-51.992187s53.753906 22.695312 55.855469 51.992187c2.105469 29.292969-18.785157 55.238281-47.855469 59.433594zm-144-159.359375c0-75.109375 60.890625-136 136-136s136 60.890625 136 136zm0 0"/></svg>